<?xml version="1.0" standalone="no"?>
<!DOCTYPE svg PUBLIC "-//W3C//DTD SVG 20010904//EN"
 "http://www.w3.org/TR/2001/REC-SVG-20010904/DTD/svg10.dtd">
<svg version="1.0" xmlns="http://www.w3.org/2000/svg"
 width="417.000000pt" height="417.000000pt" viewBox="0 0 417.000000 417.000000"
 preserveAspectRatio="xMidYMid meet">
<metadata>
Created by potrace 1.14, written by Peter Selinger 2001-2017
</metadata>
<g transform="translate(0.000000,417.000000) scale(0.100000,-0.100000)"
fill="#000000" stroke="none">
<path d="M3130 3169 c-186 -21 -367 -73 -515 -147 -80 -40 -225 -131 -225
-141 0 -3 22 -14 49 -24 88 -31 171 -108 201 -187 7 -19 16 -39 20 -43 4 -4
51 22 106 59 54 37 180 122 279 189 99 67 236 159 305 205 112 75 122 85 100
90 -34 9 -240 8 -320 -1z"/>
<path d="M3439 3072 c-63 -43 -249 -172 -413 -285 l-299 -207 74 -1 c41 0 81
-2 89 -4 8 -2 28 -7 44 -10 36 -7 81 -30 125 -62 37 -29 91 -108 91 -134 0
-38 18 -25 48 34 41 82 197 406 232 482 15 33 50 106 78 163 28 56 50 102 48
102 -1 0 -54 -35 -117 -78z"/>
<path d="M3536 3033 c-21 -48 -45 -102 -52 -120 -37 -83 -257 -589 -261 -600
-2 -6 24 0 59 14 132 54 272 22 365 -81 l45 -51 -7 60 c-4 33 -9 78 -11 100
-2 22 -8 74 -14 115 -5 41 -12 95 -15 120 -9 80 -16 134 -20 158 -2 13 -7 53
-11 90 -3 37 -8 76 -10 87 -2 11 -7 49 -10 85 -12 120 -15 121 -58 23z"/>
<path d="M3635 3058 c3 -24 8 -50 10 -58 2 -8 7 -33 10 -55 3 -23 7 -50 9 -60
2 -11 7 -40 12 -65 4 -25 8 -47 9 -50 0 -3 4 -27 9 -53 4 -27 9 -59 12 -70 2
-12 20 -119 40 -237 20 -118 39 -218 43 -222 4 -4 26 2 49 14 65 32 156 35
239 9 37 -12 74 -25 82 -28 10 -4 12 0 8 19 -4 14 -9 42 -13 64 -29 181 -150
439 -287 609 -50 63 -215 225 -228 225 -6 0 -8 -17 -4 -42z"/>
<path d="M2963 2067 c-547 -860 -653 -1029 -653 -1038 0 -38 54 37 255 354
126 199 307 485 402 635 95 150 173 277 173 282 0 36 -36 -12 -177 -233z"/>
<path d="M1922 2128 c-53 -257 -164 -523 -265 -632 -30 -32 -41 -31 -137 6
-88 35 -238 129 -270 169 -12 15 -49 27 -100 33 -30 4 -71 9 -90 11 -19 2 -60
7 -90 10 -30 3 -68 7 -85 9 -16 2 -64 7 -105 11 -41 4 -115 17 -165 30 -169
44 -311 20 -456 -76 -63 -42 -149 -126 -149 -145 0 -25 62 -49 125 -49 l59 0
151 -199 c139 -184 175 -224 175 -198 0 11 136 239 154 259 9 10 23 -3 63 -55
29 -37 61 -78 72 -92 11 -14 33 -42 50 -63 l30 -38 34 53 c18 29 51 83 73 120
21 37 42 68 45 68 4 0 29 -21 56 -48 28 -26 108 -101 178 -167 71 -66 134
-126 141 -133 11 -10 32 13 116 127 94 127 107 140 146 152 49 14 33 24 191
-128 52 -50 98 -90 101 -88 3 2 51 70 106 151 54 81 121 168 147 193 110 104
243 347 327 598 l39 116 -42 52 -42 52 -280 1 -281 1 -22 -111z m531 62 c20 0
37 -4 37 -9 0 -5 -100 -9 -222 -9 -123 0 -230 -1 -239 -1 -13 -1 -21 -21 -34
-77 -26 -116 -90 -296 -149 -419 -149 -309 -341 -448 -556 -400 -96 21 -232
103 -340 205 -128 121 -261 202 -375 230 -77 18 -184 14 -257 -10 -76 -26
-116 -49 -185 -107 -28 -24 -54 -39 -57 -35 -6 10 65 73 131 116 113 75 278
95 410 51 98 -33 172 -80 298 -190 207 -181 320 -236 474 -232 129 3 236 70
340 211 90 122 192 376 236 588 l18 87 36 3 c20 2 117 2 216 1 99 -1 197 -2
218 -3z m-1692 -597 c9 -9 -77 -144 -88 -141 -8 2 -93 104 -93 111 0 4 53 28
90 41 19 7 81 -1 91 -11z m155 -124 c38 -34 75 -67 82 -74 16 -14 3 -43 -71
-158 l-43 -68 -31 43 c-17 24 -58 77 -92 118 -34 41 -61 78 -61 82 0 4 21 41
47 82 l47 74 27 -19 c15 -10 58 -46 95 -80z m-311 11 l56 -71 -32 -52 c-18
-29 -41 -68 -51 -87 -34 -60 -73 -120 -78 -120 -3 0 -13 12 -22 28 -9 15 -28
41 -42 57 -41 50 -204 270 -202 272 3 4 83 11 195 18 46 3 91 10 100 15 9 5
17 10 18 10 1 0 27 -32 58 -70z m1454 -225 c-51 -75 -96 -134 -100 -133 -4 2
-49 43 -99 92 -66 63 -89 91 -81 99 6 6 11 9 11 6 0 -3 73 11 163 32 89 20
170 38 180 38 13 1 -6 -34 -74 -134z m-822 1 c85 -30 200 -27 326 10 9 3 17 1
17 -5 0 -11 -148 -211 -156 -211 -4 0 -34 26 -68 59 -33 32 -86 82 -116 110
-60 56 -60 57 -3 37z"/>
</g>
</svg>
